<?xml version="1.0" encoding="UTF-8" standalone="no"?>
<svg width="964px" height="975px" viewBox="0 0 964 975" version="1.1" xmlns="http://www.w3.org/2000/svg" xmlns:xlink="http://www.w3.org/1999/xlink" xmlns:sketch="http://www.bohemiancoding.com/sketch/ns">
    <!-- Generator: Sketch 3.3.3 (12081) - http://www.bohemiancoding.com/sketch -->
    <title>chip</title>
    <desc>Created with Sketch.</desc>
    <defs></defs>
    <g id="Page-2" stroke="none" stroke-width="1" fill="none" fill-rule="evenodd" sketch:type="MSPage">
        <path d="M928.451108,341.306585 C943.195549,387.488207 951.162673,436.764295 951.162673,487.927944 C951.162673,545.362707 941.1228,600.418835 922.726178,651.389018 L922.726178,651.389018 L799.892475,605.379167 L798.291624,607.542148 C812.585112,569.558574 820.414312,528.334827 820.414312,485.25576 C820.414312,449.572225 815.042503,415.16167 805.074613,382.811158 C826.642711,375.555524 901.856162,350.25328 928.451108,341.306585 Z M783.886265,123.831271 C702.39648,54.3409007 597.243588,12.4824253 482.452626,12.4824253 C392.142574,12.4824253 307.798023,38.3908016 236.248476,83.2799079 L236.248476,83.2799079 L233.223039,78.1366647 C233.223039,78.1366647 321.744266,7.68156682 487.817999,7.68156682 C487.817999,7.68156682 485.359508,107.793035 484.511063,142.342298 C567.173831,142.847548 642.801043,173.461481 701.277452,223.921082 L783.886265,123.831271 Z M772.4315,861.485755 C692.651246,925.296592 591.935606,963.373462 482.452626,963.373462 C458.261263,963.373462 434.497952,961.514422 411.29396,957.929498 L411.29396,957.929498 L431.282263,824.732607 L429.750971,824.03459 C446.917101,826.760541 464.511592,828.175576 482.431824,828.175576 C561.003464,828.175576 633.313058,800.972901 690.710953,755.343557 C698.487599,765.444203 753.283693,836.615751 772.4315,861.485755 L772.4315,861.485755 Z M856.65293,793.334903 C768.610865,903.833617 633.884188,974.5 482.880672,974.5 C421.166308,974.5 362.17069,962.696488 307.969601,941.194348 L307.969596,941.194346 C267.872491,925.918774 219.220394,900.76321 168.065636,859.338903 C168.065636,859.338903 168.763655,858.51893 170.039909,857.019695 C85.7507048,783.576769 26.8730634,680.98933 8.60994666,564.673464 C0.498041637,528.183838 -11.424805,437.992981 29.6376617,318.738919 C29.6376617,318.738919 30.4406007,319.037637 31.9235763,319.58935 L31.9235877,319.589354 C99.3819285,133.358839 275.830377,0.5 482.880672,0.5 C748.124967,0.5 963.147953,218.537327 963.147953,487.5 C963.147953,553.484137 950.206592,616.403285 926.757218,673.789982 C918.114559,697.88396 898.175262,742.712007 856.653009,793.334803 L856.65293,793.334903 Z M177.139382,848.679835 C99.0705561,780.632988 43.338678,686.959107 22.6262551,580.522948 L22.6262551,580.522948 L151.326648,554.419146 C167.134907,632.737361 209.258035,701.326888 267.912586,750.261362 L262.874939,747.964976 C262.874939,747.964976 200.85679,820.818636 177.139382,848.679835 L177.139382,848.679835 Z M42.518029,323.530814 C78.9739404,223.182399 147.844729,138.743085 236.248476,83.2799079 L302.076843,195.188131 C239.045759,235.616981 190.103869,296.611269 164.409978,368.878395 C150.117975,363.561327 73.3918711,335.01684 42.518029,323.530814 L42.518029,323.530814 Z" id="chip" fill="#D8D8D8" sketch:type="MSShapeGroup"></path>
    </g>
</svg>